<?xml version="1.0" encoding="utf-8"?>
<!-- Generator: Adobe Illustrator 27.3.1, SVG Export Plug-In . SVG Version: 6.00 Build 0)  -->
<svg version="1.1" xmlns="http://www.w3.org/2000/svg" xmlns:xlink="http://www.w3.org/1999/xlink" x="0px" y="0px"
	 viewBox="0 0 1152 660" style="enable-background:new 0 0 1152 660;" xml:space="preserve">
<style type="text/css">
	.st0{fill:#A0A5A5;}
	.st1{fill:#777A7A;}
	.st2{fill:#5A5E5E;}
	.st3{fill:#464949;}
	.st4{fill:#2D3030;}
	.st5{fill:#1C1E1E;}
</style>
<g id="Layer_7">
	<path class="st0" d="M1019.5,480.5l-49-2l-57-6l-18-5l-5,30l-7,14c0,0-7,31-4-72s-9-255-9-255c-3-7-36,0-36,0l1,21h-3
		c8,26-17,368-17,368l-30,9l-29-18L760,453V320l-53,9v52l-19.5,201.5l81,53l256,10L1019.5,480.5z M745.5,356.5l-23,3l-4-18l31-4
		L745.5,356.5z"/>
</g>
<g id="Layer_6">
	<path class="st1" d="M148,565l-1-57h43l79,4l7-17l24-1v-33h16l2-3h6l1-21l4,38l10,11l3-25l1-25l2,35l7,5l28-20h6v59l20,32h17
		c0,0-2,8-10,11s-8,3-8,3l45,27h37v-25h34l33,30l134-24l7-180l16-18l23,26l2.5,52.5l10-9l27,23l28-2v116l38,36v-167c0,0,19-8,38-8
		s26,2,26,2v108l4-49v-28h4v-10l20,14l20,3v135l16-2v-149c0,0,9-5,27-3s31,54,31,54l47-5h18l-5,6v8h4v28l1.5-1.5v-14.5h6.5v-17l32,1
		c0,0-4,5-3,15h6l2-5l6,1l2,4l2,1v10l2-1l1,13l6-1v78l-145,12l-134-2l-759,1L148,565z"/>
</g>
<g id="_x34_">
	<path class="st2" d="M65.5,536.5h18v18h6v-61l11-2c0,0,46,14,42,68s-2,99-2,99l58-125l3-46l11-9l25-3l26,20l3,2l1-3v-7l3-2l2,2v7
		l8,11h4l1,13l4-5h5v-17h6v-5l12-3v-9h-2v-4h5c0,0,2-14,13-19l2-2c0,0,2-9,5,0c0,0,15,7,16,22l3,2v7h10v8h5v-17h8L412,511v43.5h14.5
		v6h2c0,0,2-15-1-22l8-4l2-79l-3-6c0,0,23-15,35-1v128v54l22,6v-68h4v-9l16-12v-33l10-4v-9c0,0-16-5-1-8l5-1c0,0,6-7,12-6l1-31l1,31
		c0,0,9,1,13,6c0,0,22,2,2,10v10h7l2,45l70,53l5-32l73-3l39-1l66-1v6h29v-61l20-16l30-3c0,0,25,3,27,15l6,1l-2,114l93-1l-6-141
		l27-42l19-2l18,8v190v19l-1059,1l23-39L65.5,536.5z"/>
</g>
<g id="_x33_">
	<path class="st3" d="M1154.5,625.5v36H0.5l1-35l-1-81l10-9l7-2v-7l5-1v-38l15-9v-17h2v-9l2,1v7h3v18l14,13l1,32l11,5l1,95h50.09
		c-4.48-6.31-7.09-13.87-7.09-22c0-22.09,19.25-40,43-40c5.73,0,11.2,1.04,16.2,2.94l1.8-36.94l5-11v-11l11-5l1-10l6-5l1-35l2,36h8
		v11h6v6h14V321.56c-6.72-5.5-11-13.79-11-23.06c0-14.37,10.28-26.39,24-29.31V251.5h-2v-3h3v-31l0.06-3.48
		c-2.23-2.11-3.64-5.3-3.64-8.86c0-3.72,1.55-7.04,3.95-9.14l0.63-36.52h-1v-5h3v-35c0,0-3-2,0-6l2-65l1.32,65.76
		c0,0,2.52,0.36,0.54,4.68l2.5,75.17c4.18,1.41,7.22,5.82,7.22,11.05c0,4.91-2.69,9.11-6.49,10.76l1.09,32.8l1.26,1.62l0.36,3.06
		l-1.44,0.36v15.3c14.04,2.68,24.64,14.84,24.64,29.44c0,10.16-5.14,19.14-13,24.56V582.5l74.94,3.54l3.6,48.96l110.88,2.88L576,639
		c0,0-0.5-216.5,0-243h27l18,9l9,9v72l2.5,33.5l-1,67l3-9l8-22l3-159l51-10l5,3l11,175l17,65l26-11l28-3v-7h33v-24h58v35h61l-2-19
		h38v-137h10v-32c0,0,55-5,64,1v194L1154.5,625.5z"/>
</g>
<g id="_x32_">
	<path class="st4" d="M1.5,625.5h12v-13h15v-32c0,0,15-30,31,0v39h51h219l96,1v-51l35-45l5,2l15,45l-1,32l10,25h65v-107l36-6l48,4
		v108h58v-23h11v-27h-3v-21h51v21h-3v27h10v25v32H1.5V625.5z"/>
</g>
<g id="_x31_">
	<path d="M2.5,641.5"/>
	<path d="M270.5,559.5"/>
	<path d="M227.5,563.5"/>
	<path class="st5" d="M409.5,622.5v39h-307v-33l5-8h36v-34l-3-2l1-7l81-6c0,0,5.91-6.75,7.64-11.72
		c-7.68-6.03-12.64-15.55-12.64-26.28c0-18.23,14.33-33,32-33s32,14.77,32,33c0,10.54-4.79,19.92-12.24,25.97l1.24,0.03
		c0,0,1,8,10,10s14,0,14,0l1.33,1.99c7.08-9.08,18.63-14.99,31.67-14.99c21.54,0,39,16.12,39,36c0,8.28-3.03,15.91-8.12,22h42.12v8
		H409.5z"/>
</g>
</svg>
